<svg width="22" height="22" viewBox="0 0 22 22" fill="none" xmlns="http://www.w3.org/2000/svg">
<path d="M10.9999 20.1667C16.0625 20.1667 20.1666 16.0626 20.1666 11C20.1666 5.93738 16.0625 1.83333 10.9999 1.83333C5.93731 1.83333 1.83325 5.93738 1.83325 11C1.83325 16.0626 5.93731 20.1667 10.9999 20.1667Z" fill="#56A4FE"/>
<path d="M14.4008 14.6025C14.2816 14.6025 14.1624 14.575 14.0524 14.5017L11.2108 12.8058C10.5049 12.3842 9.98242 11.4583 9.98242 10.6425V6.88417C9.98242 6.50834 10.2941 6.19667 10.6699 6.19667C11.0458 6.19667 11.3574 6.50834 11.3574 6.88417V10.6425C11.3574 10.9725 11.6324 11.4583 11.9166 11.6233L14.7583 13.3192C15.0883 13.5117 15.1891 13.9333 14.9966 14.2633C14.8591 14.4833 14.6299 14.6025 14.4008 14.6025Z" fill="white"/>
</svg>
