<svg width="22" height="23" viewBox="0 0 22 23" fill="none" xmlns="http://www.w3.org/2000/svg">
<path d="M20.1666 5.73416V14.5158C20.1666 17.0458 18.1133 19.0992 15.5833 19.0992H6.41663C5.99496 19.0992 5.59163 19.0442 5.19746 18.9342C4.62913 18.7783 4.4458 18.0542 4.86746 17.6325L14.6116 7.88833C14.8133 7.68666 15.1158 7.64083 15.4 7.69583C15.6933 7.75083 16.0141 7.66833 16.2433 7.44833L18.5991 5.08333C19.4608 4.22166 20.1666 4.50583 20.1666 5.73416Z" fill="#F0AD2C"/>
<path opacity="0.4" d="M13.4199 7.24667L3.82242 16.8442C3.38242 17.2842 2.64909 17.1742 2.35575 16.6242C2.01659 16.0008 1.83325 15.2767 1.83325 14.5158V5.73417C1.83325 4.50584 2.53909 4.22167 3.40075 5.08334L5.76575 7.4575C6.12325 7.80584 6.70992 7.80584 7.06742 7.4575L10.3491 4.16667C10.7066 3.80917 11.2933 3.80917 11.6508 4.16667L13.4291 5.945C13.7774 6.3025 13.7774 6.88917 13.4199 7.24667Z" fill="#F0AD2C"/>
</svg>
