<svg width="30" height="30" viewBox="0 0 30 30" fill="none" xmlns="http://www.w3.org/2000/svg">
<g clip-path="url(#clip0_2005_453)">
<path d="M29.9707 15C29.8805 20.008 29.001 24.0357 26.4797 26.4797C24.0357 29.001 20.008 29.8805 15 29.9707C9.99199 29.8805 5.96426 29.001 3.52031 26.4797C0.999024 24.0357 0.119531 20.008 0.0292969 15C0.119531 9.99199 0.999024 5.96426 3.52031 3.52031C5.96426 0.999024 9.99199 0.119531 15 0.0292969C20.008 0.119531 24.0357 0.999024 26.4797 3.52031C29.001 5.96426 29.8805 9.99199 29.9707 15Z" fill="url(#paint0_linear_2005_453)"/>
<path d="M29.9707 15C29.8805 20.008 29.001 24.0357 26.4797 26.4797C24.0357 29.001 20.008 29.8805 15 29.9707C9.99199 29.8805 5.96426 29.001 3.52031 26.4797C0.999024 24.0357 0.119531 20.008 0.0292969 15C0.119531 9.99199 0.999024 5.96426 3.52031 3.52031C5.96426 0.999024 9.99199 0.119531 15 0.0292969C20.008 0.119531 24.0357 0.999024 26.4797 3.52031C29.001 5.96426 29.8805 9.99199 29.9707 15Z" fill="url(#paint1_radial_2005_453)"/>
<path d="M17.8359 29.3479C24.252 29.3479 29.4533 23.815 29.4533 16.9898C29.4533 10.1647 24.252 4.63184 17.8359 4.63184C11.4198 4.63184 6.21851 10.1647 6.21851 16.9898C6.21851 23.815 11.4198 29.3479 17.8359 29.3479Z" fill="url(#paint2_radial_2005_453)"/>
<path d="M23.6725 16.1449C23.4938 17.8723 22.8375 19.4115 21.7945 20.7897C20.3022 22.7608 18.3199 24.0791 16.1016 25.1063C15.2566 25.4977 14.5189 25.4438 13.7303 24.999C11.768 23.8946 9.95742 22.6031 8.50371 20.8635C7.0377 19.1092 6.16055 17.127 6.22149 14.7932C6.23672 14.2072 6.22324 13.6201 6.22324 13.0336H6.23848C6.23848 12.1969 6.19278 11.3578 6.24844 10.5246C6.37383 8.64553 7.33242 7.28264 9.04512 6.54142C10.6453 5.84885 12.3621 5.45568 13.9799 4.80764C14.9074 4.43557 15.6908 4.72619 16.5193 5.00744C17.7609 5.42873 19.0014 5.85295 20.2465 6.26252C21.7529 6.75764 22.8604 7.68049 23.4475 9.18107C23.6607 9.72424 23.7533 10.2973 23.7533 10.8697C23.7545 12.6281 23.8535 14.3895 23.6725 16.1449Z" fill="white"/>
<path d="M23.6725 16.1449C23.4938 17.8723 22.8375 19.4115 21.7945 20.7897C20.3022 22.7608 18.3199 24.0791 16.1016 25.1063C15.2566 25.4977 14.5189 25.4438 13.7303 24.999C11.768 23.8946 9.95742 22.6031 8.50371 20.8635C7.0377 19.1092 6.16055 17.127 6.22149 14.7932C6.23672 14.2072 6.22324 13.6201 6.22324 13.0336H6.23848C6.23848 12.1969 6.19278 11.3578 6.24844 10.5246C6.37383 8.64553 7.33242 7.28264 9.04512 6.54142C10.6453 5.84885 12.3621 5.45568 13.9799 4.80764C14.9074 4.43557 15.6908 4.72619 16.5193 5.00744C17.7609 5.42873 19.0014 5.85295 20.2465 6.26252C21.7529 6.75764 22.8604 7.68049 23.4475 9.18107C23.6607 9.72424 23.7533 10.2973 23.7533 10.8697C23.7545 12.6281 23.8535 14.3895 23.6725 16.1449Z" fill="url(#paint3_radial_2005_453)"/>
<path d="M15.0071 24.4892C14.741 24.4892 14.4727 24.4078 14.1616 24.2326C11.976 23.0027 10.3928 21.7529 9.17815 20.2992C7.72854 18.5648 7.04886 16.7707 7.09983 14.8148C7.10745 14.5119 7.10804 14.209 7.10687 13.9119H7.11741V13.033C7.11741 12.7652 7.11272 12.4963 7.10862 12.2367C7.09866 11.6625 7.08987 11.1199 7.12562 10.5826C7.22815 9.04333 7.99163 7.95466 9.39437 7.34763C10.2182 6.9908 11.0707 6.71892 11.9731 6.43123C12.7401 6.1863 13.5334 5.93318 14.3075 5.62322C14.4973 5.54705 14.6848 5.51013 14.8817 5.51013C15.2707 5.51013 15.6803 5.64958 16.1543 5.81072L16.8018 6.03044C17.8395 6.38318 18.9117 6.74763 19.9723 7.09626C21.2977 7.5322 22.1672 8.31853 22.6295 9.50037C22.7924 9.9158 22.875 10.3758 22.875 10.8691C22.8756 11.3308 22.8826 11.7967 22.8891 12.2472C22.909 13.5621 22.9278 14.8043 22.7989 16.0541C22.6436 17.5552 22.07 18.9697 21.0944 20.2582C19.8481 21.9047 18.1442 23.1914 15.733 24.3076C15.4688 24.4301 15.2315 24.4892 15.0071 24.4892Z" fill="white"/>
<path d="M13.9969 17.3801C13.6717 17.3801 13.3664 17.2535 13.1367 17.0238L11.9889 15.876C11.7029 15.59 11.7029 15.126 11.9889 14.84C12.2748 14.5541 12.7389 14.5541 13.0248 14.84L13.9969 15.8121L16.9752 12.8338C17.2611 12.5478 17.7252 12.5478 18.0111 12.8338C18.2971 13.1197 18.2971 13.5838 18.0111 13.8697L14.857 17.0238C14.7443 17.1371 14.6103 17.227 14.4626 17.2881C14.315 17.3493 14.1567 17.3805 13.9969 17.3801Z" fill="url(#paint4_linear_2005_453)"/>
</g>
<defs>
<linearGradient id="paint0_linear_2005_453" x1="0.0292969" y1="0.0292969" x2="29.9707" y2="0.0292969" gradientUnits="userSpaceOnUse">
<stop stop-color="#D4BDFF"/>
<stop offset="1" stop-color="#8655FF"/>
</linearGradient>
<radialGradient id="paint1_radial_2005_453" cx="0" cy="0" r="1" gradientUnits="userSpaceOnUse" gradientTransform="translate(2.19498 2.66596) scale(18.7235)">
<stop stop-color="#E9E0FF"/>
<stop offset="0.556" stop-color="#DCCAFF" stop-opacity="0.444"/>
<stop offset="1" stop-color="#D4BDFF" stop-opacity="0"/>
</radialGradient>
<radialGradient id="paint2_radial_2005_453" cx="0" cy="0" r="1" gradientUnits="userSpaceOnUse" gradientTransform="translate(17.8357 16.9897) scale(11.9934)">
<stop stop-color="#6A47D6"/>
<stop offset="0.358" stop-color="#6C48D9" stop-opacity="0.642"/>
<stop offset="0.629" stop-color="#734BE3" stop-opacity="0.371"/>
<stop offset="0.87" stop-color="#7E51F3" stop-opacity="0.13"/>
<stop offset="1" stop-color="#8655FF" stop-opacity="0"/>
</radialGradient>
<radialGradient id="paint3_radial_2005_453" cx="0" cy="0" r="1" gradientUnits="userSpaceOnUse" gradientTransform="translate(18.4408 19.877) scale(12.7788)">
<stop stop-color="#CBBAFF"/>
<stop offset="0.144" stop-color="#D6C9FF" stop-opacity="0.856"/>
<stop offset="0.49" stop-color="#ECE6FF" stop-opacity="0.51"/>
<stop offset="0.788" stop-color="#FAF9FF" stop-opacity="0.212"/>
<stop offset="1" stop-color="white" stop-opacity="0"/>
</radialGradient>
<linearGradient id="paint4_linear_2005_453" x1="11.7744" y1="12.6193" x2="18.2256" y2="12.6193" gradientUnits="userSpaceOnUse">
<stop stop-color="#D4BDFF"/>
<stop offset="1" stop-color="#8655FF"/>
</linearGradient>
<clipPath id="clip0_2005_453">
<rect width="30" height="30" fill="white"/>
</clipPath>
</defs>
</svg>
