<svg width="30" height="30" viewBox="0 0 30 30" fill="none" xmlns="http://www.w3.org/2000/svg">
<g clip-path="url(#clip0_2005_116)">
<path d="M29.9707 15C29.8805 20.008 29.001 24.0357 26.4797 26.4797C24.0357 29.001 20.008 29.8805 15 29.9707C9.99199 29.8805 5.96426 29.001 3.52031 26.4797C0.999024 24.0357 0.119531 20.008 0.0292969 15C0.119531 9.99199 0.999024 5.96426 3.52031 3.52031C5.96426 0.999024 9.99199 0.119531 15 0.0292969C20.008 0.119531 24.0357 0.999024 26.4797 3.52031C29.001 5.96426 29.8805 9.99199 29.9707 15Z" fill="url(#paint0_linear_2005_116)"/>
<path d="M29.9707 15C29.8805 20.008 29.001 24.0357 26.4797 26.4797C24.0357 29.001 20.008 29.8805 15 29.9707C9.99199 29.8805 5.96426 29.001 3.52031 26.4797C0.999024 24.0357 0.119531 20.008 0.0292969 15C0.119531 9.99199 0.999024 5.96426 3.52031 3.52031C5.96426 0.999024 9.99199 0.119531 15 0.0292969C20.008 0.119531 24.0357 0.999024 26.4797 3.52031C29.001 5.96426 29.8805 9.99199 29.9707 15Z" fill="url(#paint1_radial_2005_116)"/>
<path d="M16.5381 17.3607C20.0486 17.3607 22.8944 14.5149 22.8944 11.0044C22.8944 7.49398 20.0486 4.64819 16.5381 4.64819C13.0277 4.64819 10.1819 7.49398 10.1819 11.0044C10.1819 14.5149 13.0277 17.3607 16.5381 17.3607Z" fill="url(#paint2_radial_2005_116)"/>
<path d="M14.9256 14.1357C17.5455 14.1357 19.6694 12.0118 19.6694 9.39194C19.6694 6.77204 17.5455 4.64819 14.9256 4.64819C12.3057 4.64819 10.1819 6.77204 10.1819 9.39194C10.1819 12.0118 12.3057 14.1357 14.9256 14.1357Z" fill="white"/>
<path d="M14.9256 14.1357C17.5455 14.1357 19.6694 12.0118 19.6694 9.39194C19.6694 6.77204 17.5455 4.64819 14.9256 4.64819C12.3057 4.64819 10.1819 6.77204 10.1819 9.39194C10.1819 12.0118 12.3057 14.1357 14.9256 14.1357Z" fill="url(#paint3_radial_2005_116)"/>
<path d="M14.9255 12.1852C16.4681 12.1852 17.7187 10.9347 17.7187 9.39204C17.7187 7.84942 16.4681 6.59888 14.9255 6.59888C13.3829 6.59888 12.1323 7.84942 12.1323 9.39204C12.1323 10.9347 13.3829 12.1852 14.9255 12.1852Z" fill="white"/>
<path d="M17.0777 29.4697C22.6748 29.4697 27.2121 26.6055 27.2121 23.0724C27.2121 19.5393 22.6748 16.6752 17.0777 16.6752C11.4807 16.6752 6.94336 19.5393 6.94336 23.0724C6.94336 26.6055 11.4807 29.4697 17.0777 29.4697Z" fill="url(#paint4_radial_2005_116)"/>
<path d="M23.0566 21.8666C23.0566 23.2453 21.9393 24.3633 20.56 24.3633H9.44004C8.06133 24.3633 6.94336 23.2459 6.94336 21.8666L6.94687 20.4721C7.04707 18.5157 8.61504 16.8182 10.9166 15.8854C11.1949 15.7723 11.5078 15.7905 11.7785 15.9211C12.7301 16.3805 13.7977 16.6383 14.925 16.6383C16.0752 16.6383 17.1633 16.37 18.1295 15.893C18.3984 15.76 18.7107 15.7395 18.9902 15.8496C21.3422 16.7748 22.9518 18.4934 23.0525 20.4762L23.0566 21.8666Z" fill="white"/>
</g>
<defs>
<linearGradient id="paint0_linear_2005_116" x1="3.4234" y1="3.4234" x2="26.4697" y2="26.4697" gradientUnits="userSpaceOnUse">
<stop stop-color="#8DBAF8"/>
<stop offset="0.334" stop-color="#6FAEFB"/>
<stop offset="0.765" stop-color="#4DA0FE"/>
<stop offset="1" stop-color="#409BFF"/>
</linearGradient>
<radialGradient id="paint1_radial_2005_116" cx="0" cy="0" r="1" gradientUnits="userSpaceOnUse" gradientTransform="translate(2.19498 2.66596) scale(18.7235)">
<stop stop-color="#C2DEFF"/>
<stop offset="1" stop-color="#C2DEFF" stop-opacity="0"/>
</radialGradient>
<radialGradient id="paint2_radial_2005_116" cx="0" cy="0" r="1" gradientUnits="userSpaceOnUse" gradientTransform="translate(16.401 11.323) scale(5.5909)">
<stop stop-color="#003CA1"/>
<stop offset="0.172" stop-color="#0543A8" stop-opacity="0.828"/>
<stop offset="0.419" stop-color="#1156BB" stop-opacity="0.581"/>
<stop offset="0.71" stop-color="#2675D9" stop-opacity="0.29"/>
<stop offset="1" stop-color="#409BFF" stop-opacity="0"/>
</radialGradient>
<radialGradient id="paint3_radial_2005_116" cx="0" cy="0" r="1" gradientUnits="userSpaceOnUse" gradientTransform="translate(15.6296 10.0459) scale(3.42609)">
<stop stop-color="#4D95FF"/>
<stop offset="0.135" stop-color="#5E9FFF" stop-opacity="0.865"/>
<stop offset="0.403" stop-color="#8AB9FF" stop-opacity="0.597"/>
<stop offset="0.775" stop-color="#D1E4FF" stop-opacity="0.225"/>
<stop offset="1" stop-color="white" stop-opacity="0"/>
</radialGradient>
<radialGradient id="paint4_radial_2005_116" cx="0" cy="0" r="1" gradientUnits="userSpaceOnUse" gradientTransform="translate(17.0308 22.9503) scale(9.74038 6.14823)">
<stop stop-color="#003CA1"/>
<stop offset="0.172" stop-color="#0543A8" stop-opacity="0.829"/>
<stop offset="0.428" stop-color="#1358BD" stop-opacity="0.572"/>
<stop offset="0.737" stop-color="#2979DD" stop-opacity="0.263"/>
<stop offset="1" stop-color="#409BFF" stop-opacity="0"/>
</radialGradient>
<clipPath id="clip0_2005_116">
<rect width="30" height="30" fill="white"/>
</clipPath>
</defs>
</svg>
