<svg width="31" height="30" viewBox="0 0 31 30" fill="none" xmlns="http://www.w3.org/2000/svg">
<g clip-path="url(#clip0_2005_462)">
<path d="M30.304 15C30.2137 20.008 29.3342 24.0357 26.8129 26.4797C24.369 29.001 20.3413 29.8805 15.3333 29.9707C10.3252 29.8805 6.29751 29.001 3.85356 26.4797C1.33228 24.0357 0.452783 20.008 0.362549 15C0.452783 9.99199 1.33228 5.96426 3.85356 3.52031C6.29751 0.999024 10.3252 0.119531 15.3333 0.0292969C20.3413 0.119531 24.369 0.999024 26.8129 3.52031C29.3342 5.96426 30.2137 9.99199 30.304 15Z" fill="url(#paint0_linear_2005_462)"/>
<path d="M30.304 15C30.2137 20.008 29.3342 24.0357 26.8129 26.4797C24.369 29.001 20.3413 29.8805 15.3333 29.9707C10.3252 29.8805 6.29751 29.001 3.85356 26.4797C1.33228 24.0357 0.452783 20.008 0.362549 15C0.452783 9.99199 1.33228 5.96426 3.85356 3.52031C6.29751 0.999024 10.3252 0.119531 15.3333 0.0292969C20.3413 0.119531 24.369 0.999024 26.8129 3.52031C29.3342 5.96426 30.2137 9.99199 30.304 15Z" fill="url(#paint1_radial_2005_462)"/>
<path d="M20.3437 28.1068C25.6521 28.1068 29.9554 23.3245 29.9554 17.4252C29.9554 11.5259 25.6521 6.74353 20.3437 6.74353C15.0352 6.74353 10.7319 11.5259 10.7319 17.4252C10.7319 23.3245 15.0352 28.1068 20.3437 28.1068Z" fill="url(#paint2_radial_2005_462)"/>
<path d="M16.5853 7.50233L18.2341 10.6594C18.3351 10.8526 18.4794 11.0199 18.6558 11.148C18.8321 11.2762 19.0358 11.3619 19.2507 11.3982L22.7628 11.9906C23.8878 12.1805 24.3349 13.5568 23.5363 14.3719L21.0431 16.916C20.8906 17.0718 20.7761 17.2607 20.7087 17.4681C20.6413 17.6755 20.6228 17.8956 20.6546 18.1113L21.1761 21.6346C21.3431 22.7631 20.1724 23.6139 19.1505 23.1064L15.9607 21.5215C15.7654 21.4244 15.5503 21.3738 15.3323 21.3738C15.1142 21.3738 14.8991 21.4244 14.7039 21.5215L11.514 23.1064C10.4921 23.6139 9.32143 22.7637 9.48842 21.6346L10.0099 18.1113C10.0744 17.6742 9.93081 17.2318 9.62143 16.916L7.12827 14.3719C6.32963 13.5568 6.7767 12.1805 7.9017 11.9906L11.4138 11.3982C11.6288 11.3619 11.8325 11.2763 12.0089 11.1481C12.1852 11.02 12.3295 10.8527 12.4304 10.6594L14.0792 7.50233C14.6095 6.491 16.0568 6.491 16.5853 7.50233Z" fill="white"/>
</g>
<defs>
<linearGradient id="paint0_linear_2005_462" x1="3.75665" y1="3.4234" x2="26.803" y2="26.4697" gradientUnits="userSpaceOnUse">
<stop stop-color="#FF8C8D"/>
<stop offset="0.291" stop-color="#FF7A7B"/>
<stop offset="0.875" stop-color="#FF4B4B"/>
<stop offset="1" stop-color="#FF4040"/>
</linearGradient>
<radialGradient id="paint1_radial_2005_462" cx="0" cy="0" r="1" gradientUnits="userSpaceOnUse" gradientTransform="translate(2.52823 2.66596) scale(18.7235)">
<stop stop-color="#FFC2C2"/>
<stop offset="1" stop-color="#FFC2C2" stop-opacity="0"/>
</radialGradient>
<radialGradient id="paint2_radial_2005_462" cx="0" cy="0" r="1" gradientUnits="userSpaceOnUse" gradientTransform="translate(20.3485 17.4251) scale(9.61337 10.6815)">
<stop stop-color="#821818"/>
<stop offset="0.387" stop-color="#B42828" stop-opacity="0.613"/>
<stop offset="1" stop-color="#FF4040" stop-opacity="0"/>
</radialGradient>
<clipPath id="clip0_2005_462">
<rect width="30" height="30" fill="white" transform="translate(0.333252)"/>
</clipPath>
</defs>
</svg>
