<svg width="35" height="36" viewBox="0 0 35 36" fill="none" xmlns="http://www.w3.org/2000/svg">
<path d="M18.0678 34.5773C17.0855 34.6168 16.1057 34.5416 15.1341 34.3985C11.896 33.9215 8.89925 32.5633 6.45825 30.3717C3.15621 27.407 1.15365 23.1736 0.921132 18.7464C0.69561 14.4525 2.27776 10.0897 5.14921 6.90089C7.11306 4.71998 9.55988 3.13646 12.3483 2.22973C12.965 2.0292 13.5941 1.8474 14.2307 1.72271C15.1118 1.55016 15.9958 1.46974 16.8909 1.42153C20.2095 1.26365 23.6582 2.24336 26.4488 4.03502C27.1753 4.50143 27.8589 5.03862 28.5059 5.60906C31.7349 8.45614 33.7396 12.5278 34.0041 16.8288C34.2783 21.2883 32.7613 25.6791 29.7955 29.0194C27.5253 31.5763 24.4319 33.4628 21.0839 34.1983C20.0841 34.4179 19.0877 34.5158 18.0678 34.5773ZM17.3867 1.86441C16.6553 1.88584 15.9343 1.92002 15.2087 2.02248C11.6168 2.52967 8.27042 4.22369 5.77904 6.86506C2.88825 9.92989 1.23696 14.1004 1.36435 18.3249C1.404 19.6385 1.58274 20.9376 1.92916 22.206C2.72177 25.1077 4.3365 27.7497 6.5242 29.8072C9.02394 32.1581 12.2437 33.6284 15.6513 34.0248C16.2997 34.1002 16.9446 34.1168 17.5967 34.1253C18.5143 34.1154 19.4193 34.0426 20.3232 33.879C22.8101 33.4291 25.1252 32.3674 27.1383 30.8501C27.7724 30.3722 28.3754 29.866 28.9322 29.2984C31.9403 26.2324 33.6466 22.0835 33.5977 17.7781C33.5703 15.3553 32.9797 12.8346 31.8782 10.6713C31.075 9.09378 30.0089 7.67242 28.7423 6.43749C25.7423 3.51243 21.5818 1.81459 17.3867 1.86441Z" fill="white"/>
<path d="M17.8702 33.9647C17.1524 33.968 16.4354 33.9552 15.7213 33.875C12.8077 33.5474 9.97113 32.3819 7.66227 30.5776C7.29602 30.2915 6.95451 29.9743 6.60974 29.663C5.7283 28.867 4.96694 27.9425 4.30691 26.9578C2.72624 24.5996 1.6998 21.8091 1.55653 18.9609C1.49251 17.6881 1.54604 16.4368 1.7635 15.18C2.2614 12.3023 3.6158 9.47896 5.58097 7.31257C6.06515 6.77881 6.57057 6.26318 7.12038 5.7964C9.16642 4.05923 11.7117 2.8401 14.3461 2.32552C15.2671 2.14561 16.1957 2.07025 17.1312 2.02481L17.1882 2.02212C20.6372 1.92855 24.1709 3.08459 26.947 5.1219C27.4951 5.52417 28.0281 5.98552 28.5233 6.45137C31.5679 9.31538 33.3016 13.3277 33.4294 17.4955C33.5603 21.7668 31.9193 25.9075 29 29.0078C26.6802 31.4715 23.5268 33.1598 20.1986 33.7455C19.4301 33.8806 18.6493 33.9416 17.8702 33.9647ZM16.9219 5.06307C13.5842 5.18153 10.3025 6.74889 8.03278 9.18373C6.86685 10.4345 5.96724 11.8937 5.39825 13.5084C5.26471 13.8873 5.15875 14.2836 5.0663 14.6746L4.99754 14.9885C4.9938 15.0073 4.98644 15.078 4.97792 15.0908C4.97249 15.0989 4.96107 15.1007 4.95271 15.1058C4.58135 15.3312 4.37262 15.8236 4.2778 16.232C4.24241 16.3844 4.21668 16.5466 4.21012 16.7032C4.19685 17.0194 4.21479 17.3378 4.22214 17.654C4.22411 17.7389 4.24414 17.9352 4.21012 18.0095C4.18861 18.0564 4.08816 18.1385 4.04988 18.1797C3.81364 18.4346 3.6158 18.7582 3.60325 19.1156C3.59095 19.4678 3.66542 19.8227 3.73961 20.1656C3.75634 20.243 3.90166 20.7504 3.89321 20.7828C3.88767 20.8041 3.76687 20.9057 3.74463 20.9294C3.69409 20.9831 3.65428 21.0435 3.61688 21.1068C3.33745 21.5803 3.36476 22.0677 3.49991 22.5841C3.56232 22.8226 3.64507 23.0565 3.7762 23.2667C3.96519 23.5697 4.28037 23.8013 4.62981 23.8822C4.70649 23.9 4.79226 23.8971 4.87067 23.8976L4.88776 23.9236L4.92637 23.9806C5.03096 24.134 5.23933 24.3337 5.40971 24.4153C5.49359 24.4555 5.58688 24.4791 5.67538 24.5071C5.68306 24.5095 5.74833 24.5262 5.75303 24.5313C5.76007 24.5389 5.77358 24.6029 5.7768 24.6141L5.86856 24.9237L6.1506 25.6986C6.23324 25.9005 6.31804 26.116 6.43626 26.3001C6.67291 26.6686 7.0478 26.9321 7.48156 27.0028C7.55382 27.0146 7.62978 27.0241 7.70325 27.0234C7.76091 27.0229 7.96406 26.9771 8.00419 27C8.03101 27.0152 8.06913 27.0659 8.09193 27.0887L8.29745 27.2801C8.70893 27.6277 9.12657 27.9831 9.56885 28.2903C11.5519 29.6677 13.8097 30.6113 16.2253 30.852C16.8105 30.9103 17.4202 30.9418 18.0075 30.9017C18.7816 30.8645 19.539 30.7826 20.2968 30.6139C21.9507 30.2456 23.489 29.5252 24.8709 28.5535C25.5877 28.0495 26.2406 27.5149 26.8321 26.8645C27.1929 26.4677 27.549 26.0506 27.8612 25.6143C28.5894 24.5967 29.1713 23.4515 29.6206 22.2869C29.9124 21.5305 30.1683 20.7552 30.3114 19.9567C30.3142 19.9412 30.3078 19.9207 30.3195 19.9102C30.3347 19.8967 30.3982 19.8775 30.4199 19.8682C30.4988 19.8343 30.5774 19.7987 30.6511 19.7544C31.1096 19.479 31.2645 18.9972 31.2393 18.4837C31.216 18.0076 31.1586 17.5035 31.0891 17.0316C31.0585 16.824 30.9719 16.5799 30.9694 16.3765C31.3362 16.0744 31.5468 15.7385 31.5887 15.2556C31.6189 14.9065 31.5211 14.6322 31.412 14.3069C31.328 14.0562 31.2487 13.8066 31.0712 13.6036C30.8667 13.3695 30.596 13.1908 30.277 13.1718C30.1488 13.1641 30.0256 13.1964 29.9021 13.2267C29.6946 12.7819 29.5443 12.303 29.3552 11.8489C29.1493 11.3543 28.9367 10.8161 28.3896 10.6166C28.3276 10.594 28.0499 10.5532 28.0314 10.5213C27.9515 10.3837 27.8416 10.2596 27.7426 10.1355L27.1354 9.42391C25.409 7.50973 23.1253 6.09051 20.6228 5.45243C19.41 5.14321 18.1739 5.00062 16.9219 5.06307Z" fill="white"/>
<path d="M11.1962 7.92262C8.74593 9.48435 6.89423 11.858 6.13034 14.6779C6.03146 14.7297 5.91191 14.7621 5.80615 14.7995C6.2525 12.9652 7.22236 11.2123 8.501 9.82808C9.25134 9.01577 10.1255 8.26723 11.0616 7.67753C12.8776 6.53356 14.9937 5.91157 17.1315 5.82491L17.3941 5.81916C20.6269 5.7812 23.7569 7.14513 26.0572 9.39198C25.9795 9.39681 25.7579 9.4367 25.6951 9.41438C25.6547 9.40007 25.5585 9.29483 25.5224 9.26407L24.9089 8.75496L24.3537 8.33354C23.0762 7.43216 21.6873 6.77479 20.1617 6.41357C18.3961 5.99557 16.4823 5.99456 14.7182 6.4241C13.4732 6.7273 12.2861 7.25374 11.1962 7.92262Z" fill="white"/>
<path d="M24.687 19.4123L24.2197 17.3996L23.3756 14.6836C23.1176 13.9151 22.4409 11.7477 21.8068 11.3944C21.6749 11.3209 21.5448 11.3794 21.4072 11.4177C21.6954 11.6306 21.8945 11.9046 22.0633 12.2187C22.4126 12.8685 22.6886 13.5819 22.955 14.2689C23.7049 16.2027 24.3104 18.1844 24.7093 20.2215C24.8109 20.7402 24.9281 21.275 24.9454 21.8043C24.9551 22.1012 24.9284 22.3955 24.8416 22.6797C24.5357 22.7754 24.2267 22.905 23.9082 22.9453C24.0349 22.4697 23.9829 21.9652 23.9363 21.4811C23.831 20.3888 23.6006 19.3217 23.3457 18.2563L22.6906 15.9291C22.4455 15.106 22.2019 14.2872 21.8901 13.486C21.7374 13.0937 21.5752 12.6929 21.3683 12.3257C21.2394 12.097 21.0569 11.8304 20.8298 11.693C20.6863 11.6061 20.577 11.6658 20.4213 11.7035C20.6482 11.8697 20.8215 12.0579 20.9773 12.2913C21.1725 12.5839 21.3255 12.9133 21.4691 13.234L22.1408 14.9597C22.7168 16.5806 23.1954 18.2282 23.5583 19.91C23.6809 20.4782 23.7893 21.0498 23.8533 21.628C23.9011 22.0604 23.9362 22.4821 23.8498 22.9122C23.4103 22.7577 23.1014 22.3142 22.8984 21.9175C22.9137 21.702 22.8844 21.4734 22.8581 21.259L22.718 20.3384C22.4663 18.9602 22.0916 17.6165 21.6709 16.2816C21.2336 14.8944 20.7562 13.532 20.0686 12.2464C20.0684 12.0144 20.1033 11.7727 20.2104 11.5644C20.2469 11.4935 20.2868 11.4494 20.3597 11.4163C20.5288 11.3395 20.7294 11.2953 20.9075 11.2413L21.929 10.9305L24.0516 10.2879L25.6563 9.79643L25.895 9.8198C26.5245 9.90802 26.8936 10.5487 27.2396 11.0116C27.5436 10.9301 27.883 10.8958 28.1768 11.032C28.3552 11.1146 28.4982 11.2315 28.6186 11.387C28.914 11.7687 29.0909 12.2602 29.2714 12.7044L29.7523 13.9245L30.2327 15.3923C30.3871 15.9041 30.5354 16.4196 30.6276 16.9469C30.6814 17.2544 30.6996 17.573 30.7339 17.8837C30.7767 18.2706 30.8734 18.6769 30.6968 19.0453C30.562 19.3262 30.3464 19.4317 30.0678 19.5311C30.1488 19.1911 30.1133 18.8744 30.0652 18.5328L29.9058 17.6079C29.6003 16.0684 29.1735 14.5776 28.6508 13.0988C28.4058 12.4058 28.0907 11.4597 27.3852 11.123C27.8533 11.5647 28.0761 12.1591 28.3148 12.7436L28.8253 14.0692C29.3155 15.44 29.7415 16.8624 29.971 18.3016C30.0142 18.5722 30.0797 18.8867 30.0664 19.1609C30.0534 19.4313 29.9001 19.6755 29.8542 19.944C29.8037 20.2389 29.7947 20.5514 29.6596 20.8248C29.5756 20.9949 29.4291 21.1542 29.2665 21.2513C28.9481 21.4414 28.529 21.5176 28.1758 21.6294L25.9878 22.3259C26.1294 21.7884 26.062 21.226 26.0032 20.6806C25.8862 19.5952 25.6646 18.5288 25.4011 17.4703L24.8159 15.4218C24.4409 14.1958 24.0197 12.9739 23.3971 11.8493C23.2637 11.6085 23.0737 11.2222 22.8212 11.089C22.7314 11.0417 22.5912 11.0006 22.4942 11.0364L22.3346 11.0932C22.8074 11.4112 23.0685 11.929 23.3161 12.4292C23.5875 12.9774 23.812 13.5382 24.0357 14.1068L24.5763 15.5444C24.896 16.4792 25.1493 17.4402 25.3893 18.398C25.5791 19.1558 25.7545 19.9173 25.8726 20.6901C25.9515 21.2065 26.0564 21.8247 25.8859 22.3274C25.7824 22.4185 25.6369 22.4473 25.507 22.4845L24.9516 22.6488C25.0816 22.084 25.0195 21.5044 24.9457 20.9362L24.687 19.4123ZM28.5936 20.9662C28.7922 20.9046 29.1193 20.8455 29.2757 20.7077C29.3959 20.6018 29.4519 20.4281 29.461 20.2725C29.4699 20.1207 29.4424 19.9622 29.4253 19.8114L29.3066 18.9673C28.9155 16.6607 28.2535 14.341 27.329 12.1922C27.0752 11.6023 26.8263 10.9686 26.374 10.499C26.3212 10.4443 26.295 10.4302 26.2193 10.4302C26.2368 10.52 26.2996 10.6196 26.3425 10.7001C26.4069 10.8209 26.466 10.9386 26.5158 11.0661L23.5749 11.9636L23.8396 12.4441L25.2779 12.0275C25.7448 11.8955 26.268 11.793 26.7115 11.6005L26.7353 11.59C26.8682 11.826 26.97 12.0762 27.0704 12.3271C27.1088 12.423 27.1613 12.5087 27.1904 12.6085L27.1005 12.5131C26.8086 12.5584 26.499 12.6794 26.2147 12.7647L24.2505 13.345L24.392 13.7217L27.2997 12.8779C27.6068 13.5759 27.8378 14.3227 28.069 15.0492C28.5278 16.4914 28.934 17.9369 29.22 19.4245C29.2746 19.7085 29.3776 20.0404 29.3582 20.33C29.351 20.4379 29.2863 20.561 29.1968 20.6227C29.0407 20.7302 28.7554 20.7868 28.5705 20.8429L26.8091 21.3752C26.6483 21.4249 26.346 21.4739 26.2216 21.5788C26.2236 21.6343 26.2142 21.6464 26.2503 21.6912L28.5936 20.9662ZM25.7053 9.98788L22.8169 10.8974C22.9081 10.9603 22.9616 11.0274 23.0746 11.0136L24.633 10.5461C25.0085 10.433 25.4375 10.3419 25.7836 10.1582L25.8112 10.1682L25.9756 10.2098C25.9097 10.1327 25.8445 10.0424 25.7637 9.98096L25.7053 9.98788ZM26.011 10.4503C25.6093 10.5199 25.2149 10.6636 24.8248 10.7804L23.1524 11.2785C23.1982 11.345 23.2431 11.4277 23.3106 11.4735L23.3809 11.4656L26.2258 10.6218C26.1758 10.5609 26.1256 10.4843 26.0553 10.4467L26.011 10.4503ZM27.4794 13.9189L24.7549 14.7241C24.7843 14.8186 24.8275 15.0067 24.909 15.064L24.9651 15.0547L27.7097 14.2515C27.6729 14.1409 27.641 14.0258 27.5893 13.9212C27.5482 13.9097 27.5213 13.9125 27.4794 13.9189ZM27.9712 15.3159L26.0492 15.8821L25.4614 16.0569C25.379 16.0818 25.2766 16.1012 25.2037 16.147L25.291 16.4452C25.3445 16.4527 25.3177 16.452 25.3714 16.4472C25.6674 16.3613 28.0896 15.6618 28.1486 15.6083C28.1143 15.5101 28.0834 15.4094 28.0377 15.3159H27.9712ZM28.3686 16.7233L25.5765 17.5609C25.5926 17.6376 25.6013 17.7498 25.6434 17.8153C25.667 17.8139 25.6912 17.814 25.7144 17.809L28.5317 16.9681L28.4655 16.7233C28.4236 16.6995 28.4138 16.7129 28.3686 16.7233ZM28.7412 18.0905L27.4523 18.4845L26.275 18.8375C26.1599 18.8739 25.9921 18.9041 25.8962 18.9716C25.9092 19.0482 25.9065 19.1371 25.9645 19.1898L26.0349 19.1791L28.8664 18.3188C28.8712 18.2491 28.8354 18.1671 28.8151 18.1005C28.769 18.0772 28.7936 18.081 28.7412 18.0905ZM29.032 19.4265L26.8255 20.1094L26.3383 20.2522C26.2738 20.271 26.1947 20.2833 26.1467 20.3323C26.1546 20.4053 26.156 20.4816 26.2158 20.53L26.2762 20.5157L29.1458 19.6371L29.1141 19.4376C29.0716 19.4143 29.0762 19.4201 29.032 19.4265Z" fill="white"/>
<path d="M14.5257 23.7402C14.4303 23.5792 14.3602 23.3861 14.2833 23.2142L13.7443 21.9206C12.9383 19.7916 12.2247 17.571 12.0266 15.2913L12.9602 18.0048C12.8878 18.05 12.7908 18.0686 12.7091 18.0928L12.8269 18.4865L21.073 15.9354L20.944 15.5555L20.5432 15.6594C20.488 15.4947 20.4553 15.3239 20.4154 15.155C20.3445 14.8547 20.2712 14.5581 20.2283 14.2518L20.1332 13.2854C20.3954 13.6615 20.5506 14.1435 20.7236 14.5676L21.3734 16.2113C21.7712 17.3649 22.0591 18.5821 22.2956 19.7779C22.3972 20.2918 22.5144 20.8012 22.5577 21.3244L21.6087 18.6354L21.7974 18.5259L21.7022 18.154L13.486 20.6626L13.6353 21.0372L13.9046 20.9885C13.9577 21.0472 13.9944 21.2727 14.0186 21.3592L14.4415 23.0311L14.5587 23.7867L14.5257 23.7402ZM21.0658 16.1804L12.8724 18.6759L12.991 19.0755C13.0089 19.1323 13.0196 19.1929 13.0624 19.2365L13.1067 19.2261L21.3155 16.6772L21.149 16.177C21.1131 16.1715 21.1026 16.1711 21.0658 16.1804ZM21.5133 17.8993L13.4445 20.3793C13.4375 20.4282 13.4407 20.4264 13.4686 20.468L13.5343 20.4508L18.0093 19.0741L20.3388 18.3693L21.3053 18.0728C21.383 18.0483 21.5246 18.0227 21.5913 17.9808C21.6032 17.9734 21.6099 17.9601 21.6192 17.9497L21.5813 17.8932L21.5133 17.8993Z" fill="white"/>
<path d="M11.0667 21.7042L12.1201 24.4146C12.3392 24.9148 12.5493 25.462 12.9145 25.8744L11.9411 26.1761L11.916 26.147C11.6073 25.7804 11.4082 25.2718 11.2169 24.8351C10.7027 23.6614 10.2952 22.4394 9.92666 21.2133L9.01668 17.6874C8.84417 16.8481 8.65007 15.9652 8.71759 15.1062L5.96914 16.025L5.48069 16.1855C5.43561 16.2 5.35133 16.2388 5.30581 16.2403C5.28989 16.2408 5.27553 16.2304 5.26041 16.2255C5.22704 16.172 5.22792 16.1637 5.22901 16.1C5.2658 16.0483 5.27501 16.0426 5.33235 16.0176C5.74568 15.8372 6.21021 15.7216 6.63926 15.5791L8.77135 14.8651L8.9059 14.5973L5.39327 15.7815C5.29339 15.8975 5.20818 16.0626 5.15663 16.2073C5.07194 16.4451 5.02329 16.6965 5.02461 16.9494C5.02743 17.4829 5.13415 18.0282 5.2465 18.5487C5.43758 19.4343 5.69064 20.3068 5.95945 21.1715L6.74711 23.4956L8.09684 26.4939C7.80197 26.5728 7.49259 26.6009 7.21851 26.4384C7.04841 26.3377 6.90659 26.2013 6.80115 26.034C6.68281 25.8462 6.60295 25.6349 6.51819 25.4305C6.19243 24.6446 6.01345 23.8281 5.81006 23.0056L5.38997 21.3783C5.08143 20.1917 4.85673 19.0186 4.74012 17.7973C4.71064 17.4883 4.66002 17.156 4.67622 16.8465C4.69392 16.5081 4.77394 16.1308 4.94954 15.8365C5.03865 15.6872 5.14645 15.5374 5.30774 15.4613C5.48121 15.3794 5.68332 15.3331 5.86712 15.2784L6.76287 14.9985L9.23177 14.1955C9.71608 14.0364 10.193 13.8463 10.6877 13.7204C10.7378 13.7156 10.7916 13.7085 10.8416 13.7166C11.1547 13.7669 11.5152 14.2311 11.611 14.5126C11.648 14.6214 11.624 14.7892 11.625 14.9046L11.6554 15.4227C11.6923 15.7694 11.7656 16.1097 11.8372 16.4505C12.1356 17.8698 12.5302 19.2553 12.9874 20.631C13.2846 21.5253 13.5916 22.4063 13.9634 23.2734C14.1555 23.7217 14.3458 24.2041 14.6135 24.6121L14.6277 24.6334C14.6353 24.8222 14.564 25.2257 14.4408 25.3733C14.3742 25.4529 14.2321 25.4976 14.1322 25.5019C13.9908 25.4595 13.8599 25.2678 13.7852 25.1467C13.4167 24.5494 13.1569 23.8655 12.9111 23.2094L11.8757 20.0902L10.9661 16.6759C10.8556 16.167 10.7604 15.6641 10.7066 15.1454C10.6659 14.7527 10.6387 14.3767 10.7304 13.9895L10.4102 14.1148C10.3632 14.2217 10.3418 14.35 10.3406 14.4665C10.3344 15.0349 10.4889 15.6656 10.6071 16.2189L10.8938 17.4773C11.3991 19.411 12.0191 21.3378 12.7669 23.1913C12.9677 23.6889 13.1814 24.1777 13.4304 24.6534C13.6009 24.9793 13.7589 25.2803 14.018 25.547L13.0765 25.828C12.9788 25.7731 12.9013 25.7269 12.8314 25.6377C12.5728 25.3078 12.409 24.8607 12.246 24.4777C11.5816 22.9169 11.0745 21.2677 10.6298 19.632C10.2925 18.391 9.97476 17.1259 9.79662 15.8513C9.73932 15.4413 9.65652 14.9794 9.71258 14.5682L9.71777 14.5318C9.73116 14.4327 9.76707 14.3606 9.81234 14.2731L9.74897 14.2906C9.69493 14.3092 9.51554 14.3709 9.49371 14.4157C9.41715 14.5729 9.38144 14.7354 9.37955 14.9105C9.37521 15.3139 9.48136 15.7404 9.55463 16.137C9.90334 18.0244 10.4339 19.8932 11.0667 21.7042Z" fill="white"/>
<path d="M30.8724 15.6787C30.7927 15.7051 30.7229 15.7216 30.639 15.7268C30.476 15.5757 30.0704 14.0879 30.0181 13.8224C30.0947 13.774 30.1762 13.7489 30.2613 13.7201C30.2934 13.7183 30.3255 13.7159 30.3575 13.7203C30.5168 13.7425 30.6616 13.8382 30.7553 13.9666C30.8899 14.151 30.9594 14.437 31.026 14.6539C31.0649 14.7807 31.1174 14.9193 31.1333 15.0506C31.1454 15.1503 31.1375 15.2668 31.1183 15.3647C31.088 15.5186 30.9969 15.5954 30.8724 15.6787Z" fill="white"/>
<path d="M5.44706 17.3265C5.41867 17.3331 5.40765 17.3313 5.37966 17.3265L5.31348 16.739L8.38024 15.7381C8.41635 15.7283 8.43022 15.7287 8.46625 15.7326C8.48523 15.9224 8.51507 16.1508 8.49754 16.3396L5.44706 17.3265Z" fill="white"/>
<path d="M5.70813 18.6618L5.65099 18.6567C5.60933 18.57 5.59285 18.4635 5.56976 18.3701L5.44849 17.8739L8.47906 16.9042C8.50113 16.9014 8.52084 16.9019 8.54304 16.9025L8.70927 17.7019L5.70813 18.6618Z" fill="white"/>
<path d="M6.04985 20.0707L5.99287 20.0564L5.70117 19.1843L8.7202 18.191L8.77441 18.1832C8.82729 18.2674 8.84876 18.3863 8.87546 18.4817L9.04974 19.1329L6.04985 20.0707Z" fill="white"/>
<path d="M5.60968 24.022C5.50513 23.9635 5.39407 23.897 5.31976 23.8007C5.22989 23.6843 5.16772 23.5178 5.11697 23.3802L4.89038 22.7008L4.2821 20.4783C4.18129 20.0511 4.02584 19.5356 4.08233 19.0973L4.087 19.0656L4.10111 18.9828C4.16324 18.7172 4.33221 18.4971 4.56113 18.3519L4.60207 18.3674L6.01662 24.0894C5.87697 24.0764 5.74504 24.0616 5.60968 24.022Z" fill="white"/>
<path d="M6.47195 21.5108C6.4436 21.5144 6.41987 21.5145 6.39152 21.5135L6.08765 20.5524C6.51437 20.3422 6.9955 20.2194 7.44872 20.0749L9.0842 19.518L9.13623 19.5078C9.18923 19.5739 9.21046 19.6875 9.2362 19.7688L9.44868 20.514L6.47195 21.5108Z" fill="white"/>
<path d="M11.8168 26.2057C11.2386 26.4392 10.6368 26.6105 10.0472 26.8122L9.41572 27.0322C9.31559 27.0674 9.20067 27.121 9.09551 27.1319C8.9023 27.152 8.67301 27.0382 8.53473 26.9119C8.39576 26.7848 8.29487 26.6208 8.20857 26.4551C7.84981 25.7668 7.57367 25.0259 7.31242 24.2969L6.71359 22.587L6.56831 22.1366C6.54555 22.0607 6.5096 21.9733 6.50586 21.8939L9.46908 20.9254C9.51243 20.9137 9.53137 20.9094 9.57391 20.9254L9.90863 21.9354C9.82286 21.9833 9.71304 22.0086 9.61943 22.0397L9.05623 22.2283L6.95076 22.9429L7.05161 23.2187L10.0261 22.237L10.8304 24.2605C11.1109 24.9246 11.4148 25.6051 11.8168 26.2057ZM10.3099 23.3381L7.47729 24.2782C7.50877 24.3598 7.53596 24.4502 7.58461 24.5229L10.437 23.569C10.4136 23.4957 10.3968 23.3856 10.3413 23.334L10.3099 23.3381ZM10.7497 24.5645L8.01202 25.4685C8.02199 25.542 8.05834 25.6139 8.08557 25.6829L8.1234 25.7114L8.18099 25.6937L10.9366 24.7622C10.9041 24.6916 10.8774 24.5932 10.8148 24.5477L10.7497 24.5645ZM11.2925 25.5497L10.0429 25.9714L9.03371 26.297C8.87789 26.3474 8.60976 26.3984 8.48981 26.5047C8.49986 26.5517 8.51619 26.5732 8.54683 26.6097L8.5796 26.6153L11.3591 25.6717C11.3815 25.619 11.3708 25.6113 11.3531 25.5558C11.3105 25.5422 11.3307 25.5428 11.2925 25.5497Z" fill="white"/>
<path d="M4.61704 23.4148C4.3498 23.2996 4.17423 23.1203 4.06731 22.8507C3.91109 22.4567 3.75407 21.9221 3.93727 21.5141C4.0113 21.3492 4.11038 21.212 4.28538 21.1465L4.31948 21.1604C4.49649 21.5579 4.58387 22.0265 4.71387 22.4434C4.80861 22.7472 4.95084 23.0586 5.0132 23.3682L4.98409 23.4063C4.84773 23.4612 4.75537 23.4458 4.61704 23.4148Z" fill="white"/>
<path d="M9.89062 27.4934L9.79468 27.3839L9.81989 27.3683C9.87405 27.3422 10.0793 27.2739 10.1374 27.2821C10.1651 27.286 10.2604 27.3661 10.2875 27.3848L10.8313 27.7553C11.4764 28.1649 12.1359 28.5322 12.8378 28.8366C15.7321 30.0919 19.0778 30.1055 22.0001 28.9419C22.671 28.6749 23.2969 28.3282 23.9006 27.9345C25.3692 26.9769 26.6587 25.6978 27.56 24.1859C27.8298 23.7334 28.0733 23.2649 28.2865 22.7832L28.6357 21.9343C28.7012 21.8833 28.8231 21.8704 28.9048 21.8503C28.9394 21.8488 28.9228 21.8439 28.9526 21.8704C28.8408 22.2629 28.6726 22.6413 28.5019 23.0112C28.2403 23.5787 27.9485 24.1386 27.5936 24.654C27.3846 24.9576 27.1764 25.2677 26.9448 25.5544C25.9342 26.8054 24.6583 27.9147 23.2311 28.6632C22.0807 29.2666 20.8231 29.6551 19.5492 29.8902C16.7904 30.3991 13.9197 29.8251 11.4682 28.4952C10.918 28.1967 10.4057 27.8477 9.89062 27.4934Z" fill="white"/>
</svg>
