<svg width="22" height="23" viewBox="0 0 22 23" fill="none" xmlns="http://www.w3.org/2000/svg">
<path opacity="0.4" d="M19.3233 8.36503V14.635C19.3233 15.6617 18.7733 16.615 17.8841 17.1375L12.4391 20.2817C11.55 20.795 10.45 20.795 9.55165 20.2817L4.10665 17.1375C3.21748 16.6242 2.66748 15.6708 2.66748 14.635V8.36503C2.66748 7.33837 3.21748 6.385 4.10665 5.8625L9.55165 2.71834C10.4408 2.205 11.5408 2.205 12.4391 2.71834L17.8841 5.8625C18.7733 6.385 19.3233 7.3292 19.3233 8.36503Z" fill="#F0AD2C"/>
<path d="M11.0001 11.5C12.1797 11.5 13.1359 10.5437 13.1359 9.36415C13.1359 8.18456 12.1797 7.22836 11.0001 7.22836C9.8205 7.22836 8.86426 8.18456 8.86426 9.36415C8.86426 10.5437 9.8205 11.5 11.0001 11.5Z" fill="#F0AD2C"/>
<path d="M13.4567 15.7716C14.1992 15.7716 14.63 14.9467 14.2175 14.3325C13.5942 13.4067 12.3842 12.7834 11 12.7834C9.61582 12.7834 8.40582 13.4067 7.78249 14.3325C7.36999 14.9467 7.80082 15.7716 8.54332 15.7716H13.4567Z" fill="#F0AD2C"/>
</svg>
