<svg width="31" height="30" viewBox="0 0 31 30" fill="none" xmlns="http://www.w3.org/2000/svg">
<g clip-path="url(#clip0_2005_107)">
<path d="M30.6375 15C30.5472 20.008 29.6677 24.0357 27.1464 26.4797C24.7025 29.001 20.6748 29.8805 15.6667 29.9707C10.6587 29.8805 6.63101 29.001 4.18706 26.4797C1.66577 24.0357 0.786279 20.008 0.696045 15C0.786279 9.99199 1.66577 5.96426 4.18706 3.52031C6.63101 0.999024 10.6587 0.119531 15.6667 0.0292969C20.6748 0.119531 24.7025 0.999024 27.1464 3.52031C29.6677 5.96426 30.5472 9.99199 30.6375 15Z" fill="url(#paint0_linear_2005_107)"/>
<path d="M30.6375 15C30.5472 20.008 29.6677 24.0357 27.1464 26.4797C24.7025 29.001 20.6748 29.8805 15.6667 29.9707C10.6587 29.8805 6.63101 29.001 4.18706 26.4797C1.66577 24.0357 0.786279 20.008 0.696045 15C0.786279 9.99199 1.66577 5.96426 4.18706 3.52031C6.63101 0.999024 10.6587 0.119531 15.6667 0.0292969C20.6748 0.119531 24.7025 0.999024 27.1464 3.52031C29.6677 5.96426 30.5472 9.99199 30.6375 15Z" fill="url(#paint1_radial_2005_107)"/>
<path d="M17.8881 29.6566C24.602 29.6566 30.0446 24.4629 30.0446 18.0562C30.0446 11.6495 24.602 6.45581 17.8881 6.45581C11.1743 6.45581 5.73169 11.6495 5.73169 18.0562C5.73169 24.4629 11.1743 29.6566 17.8881 29.6566Z" fill="url(#paint2_radial_2005_107)"/>
<path d="M20.9491 23.5441H10.3846C7.81528 23.5441 5.73169 21.4611 5.73169 18.8912V11.1087C5.73169 8.5394 7.8147 6.45581 10.3846 6.45581H20.9491C23.5184 6.45581 25.602 8.53882 25.602 11.1087V18.8912C25.602 21.4611 23.5184 23.5441 20.9491 23.5441Z" fill="white"/>
<path d="M20.9491 23.5441H10.3846C7.81528 23.5441 5.73169 21.4611 5.73169 18.8912V11.1087C5.73169 8.5394 7.8147 6.45581 10.3846 6.45581H20.9491C23.5184 6.45581 25.602 8.53882 25.602 11.1087V18.8912C25.602 21.4611 23.5184 23.5441 20.9491 23.5441Z" fill="url(#paint3_radial_2005_107)"/>
<path d="M25.6018 17.4457H20.5622C19.2116 17.4457 18.1165 16.3506 18.1165 15C18.1165 13.6494 19.2116 12.5543 20.5622 12.5543H25.6018V17.4457Z" fill="white"/>
<path d="M20.6424 14.1475C20.1713 14.1475 19.7893 14.5289 19.7893 15C19.7893 15.4711 20.1713 15.8525 20.6424 15.8525C21.1129 15.8525 21.495 15.4711 21.495 15C21.495 14.5289 21.1129 14.1475 20.6424 14.1475Z" fill="url(#paint4_linear_2005_107)"/>
</g>
<defs>
<linearGradient id="paint0_linear_2005_107" x1="0.696045" y1="0.0292969" x2="30.6375" y2="0.0292969" gradientUnits="userSpaceOnUse">
<stop stop-color="#FBD79C"/>
<stop offset="0.219" stop-color="#FCC680"/>
<stop offset="0.749" stop-color="#FEA140"/>
<stop offset="1" stop-color="#FF9227"/>
</linearGradient>
<radialGradient id="paint1_radial_2005_107" cx="0" cy="0" r="1" gradientUnits="userSpaceOnUse" gradientTransform="translate(2.50337 2.24789) scale(21.4928)">
<stop stop-color="#FFF9E1"/>
<stop offset="0.273" stop-color="#FEEECB" stop-opacity="0.727"/>
<stop offset="0.744" stop-color="#FCDDA9" stop-opacity="0.256"/>
<stop offset="1" stop-color="#FBD79C" stop-opacity="0"/>
</radialGradient>
<radialGradient id="paint2_radial_2005_107" cx="0" cy="0" r="1" gradientUnits="userSpaceOnUse" gradientTransform="translate(17.8884 18.0562) scale(11.8817 11.8817)">
<stop stop-color="#FF7029"/>
<stop offset="0.31" stop-color="#FF652E" stop-opacity="0.69"/>
<stop offset="0.845" stop-color="#FF493B" stop-opacity="0.155"/>
<stop offset="1" stop-color="#FF4040" stop-opacity="0"/>
</radialGradient>
<radialGradient id="paint3_radial_2005_107" cx="0" cy="0" r="1" gradientUnits="userSpaceOnUse" gradientTransform="translate(22.8477 15.0543) scale(9.26561 6.26355)">
<stop stop-color="#FF902C"/>
<stop offset="0.08" stop-color="#FF9A3F" stop-opacity="0.92"/>
<stop offset="0.535" stop-color="#FFD0A5" stop-opacity="0.465"/>
<stop offset="0.852" stop-color="#FFF2E6" stop-opacity="0.148"/>
<stop offset="1" stop-color="white" stop-opacity="0"/>
</radialGradient>
<linearGradient id="paint4_linear_2005_107" x1="19.7893" y1="14.1475" x2="21.495" y2="14.1475" gradientUnits="userSpaceOnUse">
<stop stop-color="#FBD79C"/>
<stop offset="0.219" stop-color="#FCC680"/>
<stop offset="0.749" stop-color="#FEA140"/>
<stop offset="1" stop-color="#FF9227"/>
</linearGradient>
<clipPath id="clip0_2005_107">
<rect width="30" height="30" fill="white" transform="translate(0.666748)"/>
</clipPath>
</defs>
</svg>
